<svg xmlns="http://www.w3.org/2000/svg" viewBox="0 0 512 512" aria-label="Wenjia Wang website icon">
  <defs>
    <style>
      .navy { fill: #041734; }
      .cream { fill: #f7f3ea; }
      .ring { fill: none; stroke: #f7f3ea; stroke-width: 12; stroke-linecap: round; }
      .page { fill: none; stroke: #f7f3ea; stroke-width: 10; stroke-linecap: round; stroke-linejoin: round; }
    </style>
  </defs>
  <circle class="navy" cx="256" cy="256" r="220"/>
  <path class="ring" d="M103 382 C68 327, 52 272, 60 209 C73 106, 156 57, 256 57 C356 57, 439 106, 452 209 C460 272, 444 327, 409 382"/>
  <text x="256" y="310" text-anchor="middle" font-size="210" font-weight="700" font-family="Songti SC, STSong, Noto Serif CJK SC, serif" class="cream">文</text>
  <path class="page" d="M102 392 C160 369, 219 372, 256 425"/>
  <path class="page" d="M410 392 C352 369, 293 372, 256 425"/>
  <path class="page" d="M116 405 C172 386, 223 390, 256 438"/>
  <path class="page" d="M396 405 C340 386, 289 390, 256 438"/>
  <path class="page" d="M256 425 L256 451"/>
</svg>
